<mxfile host="app.diagrams.net" modified="2023-01-07T20:35:25.505Z" agent="5.0 (Windows NT 10.0; Win64; x64) AppleWebKit/537.36 (KHTML, like Gecko) Chrome/108.0.0.0 Safari/537.36" etag="wxE0A58O5bfIS0ihyuhw" version="20.8.3" type="github">
  <diagram id="C5RBs43oDa-KdzZeNtuy" name="Page-1">
    <mxGraphModel dx="662" dy="936" grid="1" gridSize="10" guides="1" tooltips="1" connect="1" arrows="1" fold="1" page="1" pageScale="1" pageWidth="827" pageHeight="1169" math="0" shadow="0">
      <root>
        <mxCell id="WIyWlLk6GJQsqaUBKTNV-0" />
        <mxCell id="WIyWlLk6GJQsqaUBKTNV-1" parent="WIyWlLk6GJQsqaUBKTNV-0" />
        <mxCell id="gh1g828XKREOO8P81Urr-11" value="" style="edgeStyle=orthogonalEdgeStyle;rounded=0;orthogonalLoop=1;jettySize=auto;html=1;entryX=0.5;entryY=0;entryDx=0;entryDy=0;" edge="1" parent="WIyWlLk6GJQsqaUBKTNV-1" source="gh1g828XKREOO8P81Urr-4" target="gh1g828XKREOO8P81Urr-42">
          <mxGeometry relative="1" as="geometry">
            <mxPoint x="400" y="180" as="targetPoint" />
          </mxGeometry>
        </mxCell>
        <mxCell id="gh1g828XKREOO8P81Urr-4" value="Старт" style="strokeWidth=2;html=1;shape=mxgraph.flowchart.start_1;whiteSpace=wrap;" vertex="1" parent="WIyWlLk6GJQsqaUBKTNV-1">
          <mxGeometry x="350" y="150" width="100" height="60" as="geometry" />
        </mxCell>
        <mxCell id="gh1g828XKREOO8P81Urr-13" value="" style="edgeStyle=orthogonalEdgeStyle;rounded=0;orthogonalLoop=1;jettySize=auto;html=1;exitX=0.5;exitY=1;exitDx=0;exitDy=0;" edge="1" parent="WIyWlLk6GJQsqaUBKTNV-1" source="gh1g828XKREOO8P81Urr-42" target="gh1g828XKREOO8P81Urr-12">
          <mxGeometry relative="1" as="geometry">
            <mxPoint x="400" y="270" as="sourcePoint" />
          </mxGeometry>
        </mxCell>
        <mxCell id="gh1g828XKREOO8P81Urr-15" value="" style="edgeStyle=orthogonalEdgeStyle;rounded=0;orthogonalLoop=1;jettySize=auto;html=1;" edge="1" parent="WIyWlLk6GJQsqaUBKTNV-1" source="gh1g828XKREOO8P81Urr-12" target="gh1g828XKREOO8P81Urr-14">
          <mxGeometry relative="1" as="geometry" />
        </mxCell>
        <mxCell id="gh1g828XKREOO8P81Urr-16" value="Yes" style="edgeLabel;html=1;align=center;verticalAlign=middle;resizable=0;points=[];" vertex="1" connectable="0" parent="gh1g828XKREOO8P81Urr-15">
          <mxGeometry x="-0.2916" y="3" relative="1" as="geometry">
            <mxPoint x="11" y="10" as="offset" />
          </mxGeometry>
        </mxCell>
        <mxCell id="gh1g828XKREOO8P81Urr-40" value="" style="edgeStyle=orthogonalEdgeStyle;rounded=0;orthogonalLoop=1;jettySize=auto;html=1;" edge="1" parent="WIyWlLk6GJQsqaUBKTNV-1" source="gh1g828XKREOO8P81Urr-12" target="gh1g828XKREOO8P81Urr-41">
          <mxGeometry relative="1" as="geometry">
            <mxPoint x="600" y="395" as="targetPoint" />
          </mxGeometry>
        </mxCell>
        <mxCell id="gh1g828XKREOO8P81Urr-47" value="No" style="edgeLabel;html=1;align=center;verticalAlign=middle;resizable=0;points=[];" vertex="1" connectable="0" parent="gh1g828XKREOO8P81Urr-40">
          <mxGeometry x="-0.7027" y="1" relative="1" as="geometry">
            <mxPoint x="18" y="-14" as="offset" />
          </mxGeometry>
        </mxCell>
        <mxCell id="gh1g828XKREOO8P81Urr-12" value="index &amp;lt; numbers.length" style="rhombus;whiteSpace=wrap;html=1;strokeWidth=2;" vertex="1" parent="WIyWlLk6GJQsqaUBKTNV-1">
          <mxGeometry x="310" y="355" width="180" height="80" as="geometry" />
        </mxCell>
        <mxCell id="gh1g828XKREOO8P81Urr-18" value="" style="edgeStyle=orthogonalEdgeStyle;rounded=0;orthogonalLoop=1;jettySize=auto;html=1;" edge="1" parent="WIyWlLk6GJQsqaUBKTNV-1" source="gh1g828XKREOO8P81Urr-14" target="gh1g828XKREOO8P81Urr-17">
          <mxGeometry relative="1" as="geometry" />
        </mxCell>
        <mxCell id="gh1g828XKREOO8P81Urr-24" value="Yes" style="edgeLabel;html=1;align=center;verticalAlign=middle;resizable=0;points=[];" vertex="1" connectable="0" parent="gh1g828XKREOO8P81Urr-18">
          <mxGeometry x="-0.2265" relative="1" as="geometry">
            <mxPoint x="14" as="offset" />
          </mxGeometry>
        </mxCell>
        <mxCell id="gh1g828XKREOO8P81Urr-22" value="" style="edgeStyle=orthogonalEdgeStyle;rounded=0;orthogonalLoop=1;jettySize=auto;html=1;" edge="1" parent="WIyWlLk6GJQsqaUBKTNV-1" source="gh1g828XKREOO8P81Urr-14" target="gh1g828XKREOO8P81Urr-21">
          <mxGeometry relative="1" as="geometry" />
        </mxCell>
        <mxCell id="gh1g828XKREOO8P81Urr-23" value="No" style="edgeLabel;html=1;align=center;verticalAlign=middle;resizable=0;points=[];" vertex="1" connectable="0" parent="gh1g828XKREOO8P81Urr-22">
          <mxGeometry x="-0.2708" y="1" relative="1" as="geometry">
            <mxPoint x="7" y="-14" as="offset" />
          </mxGeometry>
        </mxCell>
        <mxCell id="gh1g828XKREOO8P81Urr-14" value="numbers[index] &amp;gt; maximum" style="rhombus;whiteSpace=wrap;html=1;strokeWidth=2;" vertex="1" parent="WIyWlLk6GJQsqaUBKTNV-1">
          <mxGeometry x="305" y="505" width="190" height="80" as="geometry" />
        </mxCell>
        <mxCell id="gh1g828XKREOO8P81Urr-31" value="" style="edgeStyle=orthogonalEdgeStyle;rounded=0;orthogonalLoop=1;jettySize=auto;html=1;entryX=0;entryY=0.5;entryDx=0;entryDy=0;" edge="1" parent="WIyWlLk6GJQsqaUBKTNV-1" source="gh1g828XKREOO8P81Urr-17" target="gh1g828XKREOO8P81Urr-30">
          <mxGeometry relative="1" as="geometry">
            <Array as="points">
              <mxPoint x="400" y="780" />
            </Array>
          </mxGeometry>
        </mxCell>
        <mxCell id="gh1g828XKREOO8P81Urr-17" value="maximum = numbers[index]&lt;br&gt;count_maximal = 1" style="whiteSpace=wrap;html=1;strokeWidth=2;" vertex="1" parent="WIyWlLk6GJQsqaUBKTNV-1">
          <mxGeometry x="315" y="640" width="170" height="60" as="geometry" />
        </mxCell>
        <mxCell id="gh1g828XKREOO8P81Urr-28" value="" style="edgeStyle=orthogonalEdgeStyle;rounded=0;orthogonalLoop=1;jettySize=auto;html=1;" edge="1" parent="WIyWlLk6GJQsqaUBKTNV-1" source="gh1g828XKREOO8P81Urr-21" target="gh1g828XKREOO8P81Urr-27">
          <mxGeometry relative="1" as="geometry" />
        </mxCell>
        <mxCell id="gh1g828XKREOO8P81Urr-29" value="Yes" style="edgeLabel;html=1;align=center;verticalAlign=middle;resizable=0;points=[];" vertex="1" connectable="0" parent="gh1g828XKREOO8P81Urr-28">
          <mxGeometry x="-0.2902" y="-2" relative="1" as="geometry">
            <mxPoint x="17" as="offset" />
          </mxGeometry>
        </mxCell>
        <mxCell id="gh1g828XKREOO8P81Urr-35" value="" style="edgeStyle=orthogonalEdgeStyle;rounded=0;orthogonalLoop=1;jettySize=auto;html=1;entryX=1;entryY=0.5;entryDx=0;entryDy=0;" edge="1" parent="WIyWlLk6GJQsqaUBKTNV-1" source="gh1g828XKREOO8P81Urr-21" target="gh1g828XKREOO8P81Urr-30">
          <mxGeometry relative="1" as="geometry">
            <mxPoint x="935" y="545" as="targetPoint" />
            <Array as="points">
              <mxPoint x="770" y="544" />
              <mxPoint x="770" y="780" />
            </Array>
          </mxGeometry>
        </mxCell>
        <mxCell id="gh1g828XKREOO8P81Urr-36" value="No" style="edgeLabel;html=1;align=center;verticalAlign=middle;resizable=0;points=[];" vertex="1" connectable="0" parent="gh1g828XKREOO8P81Urr-35">
          <mxGeometry x="-0.4123" y="2" relative="1" as="geometry">
            <mxPoint x="-22" y="-193" as="offset" />
          </mxGeometry>
        </mxCell>
        <mxCell id="gh1g828XKREOO8P81Urr-48" value="No" style="edgeLabel;html=1;align=center;verticalAlign=middle;resizable=0;points=[];" vertex="1" connectable="0" parent="gh1g828XKREOO8P81Urr-35">
          <mxGeometry x="-0.4854" y="3" relative="1" as="geometry">
            <mxPoint x="-33" y="-63" as="offset" />
          </mxGeometry>
        </mxCell>
        <mxCell id="gh1g828XKREOO8P81Urr-21" value="numbers[index] == maximum" style="rhombus;whiteSpace=wrap;html=1;strokeWidth=2;" vertex="1" parent="WIyWlLk6GJQsqaUBKTNV-1">
          <mxGeometry x="535" y="504.5" width="190" height="80" as="geometry" />
        </mxCell>
        <mxCell id="gh1g828XKREOO8P81Urr-33" value="" style="edgeStyle=orthogonalEdgeStyle;rounded=0;orthogonalLoop=1;jettySize=auto;html=1;entryX=0.5;entryY=0;entryDx=0;entryDy=0;" edge="1" parent="WIyWlLk6GJQsqaUBKTNV-1" source="gh1g828XKREOO8P81Urr-27" target="gh1g828XKREOO8P81Urr-30">
          <mxGeometry relative="1" as="geometry">
            <mxPoint x="665" y="829.9999999999998" as="targetPoint" />
            <Array as="points" />
          </mxGeometry>
        </mxCell>
        <mxCell id="gh1g828XKREOO8P81Urr-27" value="count_maximal = count_maximal + 1" style="whiteSpace=wrap;html=1;strokeWidth=2;" vertex="1" parent="WIyWlLk6GJQsqaUBKTNV-1">
          <mxGeometry x="570" y="640" width="120" height="60" as="geometry" />
        </mxCell>
        <mxCell id="gh1g828XKREOO8P81Urr-38" value="" style="edgeStyle=orthogonalEdgeStyle;rounded=0;orthogonalLoop=1;jettySize=auto;html=1;entryX=0;entryY=0.5;entryDx=0;entryDy=0;" edge="1" parent="WIyWlLk6GJQsqaUBKTNV-1" source="gh1g828XKREOO8P81Urr-30" target="gh1g828XKREOO8P81Urr-12">
          <mxGeometry relative="1" as="geometry">
            <mxPoint x="200" y="819.9999999999998" as="targetPoint" />
            <Array as="points">
              <mxPoint x="630" y="830" />
              <mxPoint x="240" y="830" />
              <mxPoint x="240" y="395" />
            </Array>
          </mxGeometry>
        </mxCell>
        <mxCell id="gh1g828XKREOO8P81Urr-30" value="index = index + 1" style="whiteSpace=wrap;html=1;strokeWidth=2;" vertex="1" parent="WIyWlLk6GJQsqaUBKTNV-1">
          <mxGeometry x="570" y="750" width="120" height="60" as="geometry" />
        </mxCell>
        <mxCell id="gh1g828XKREOO8P81Urr-45" value="" style="edgeStyle=orthogonalEdgeStyle;rounded=0;orthogonalLoop=1;jettySize=auto;html=1;" edge="1" parent="WIyWlLk6GJQsqaUBKTNV-1" source="gh1g828XKREOO8P81Urr-41" target="gh1g828XKREOO8P81Urr-44">
          <mxGeometry relative="1" as="geometry" />
        </mxCell>
        <mxCell id="gh1g828XKREOO8P81Urr-41" value="print(count_maximal)" style="shape=parallelogram;html=1;strokeWidth=2;perimeter=parallelogramPerimeter;whiteSpace=wrap;rounded=1;arcSize=12;size=0.23;" vertex="1" parent="WIyWlLk6GJQsqaUBKTNV-1">
          <mxGeometry x="530" y="365" width="160" height="60" as="geometry" />
        </mxCell>
        <mxCell id="gh1g828XKREOO8P81Urr-42" value="numbers = [1, 8, 3, 8, 2, 6, 8, 8]&lt;br style=&quot;border-color: var(--border-color);&quot;&gt;index = 0&lt;br style=&quot;border-color: var(--border-color);&quot;&gt;maximum = numbers[index]&lt;br style=&quot;border-color: var(--border-color);&quot;&gt;count_maximal = 0" style="shape=parallelogram;html=1;strokeWidth=2;perimeter=parallelogramPerimeter;whiteSpace=wrap;rounded=1;arcSize=12;size=0.23;" vertex="1" parent="WIyWlLk6GJQsqaUBKTNV-1">
          <mxGeometry x="260" y="240" width="280" height="80" as="geometry" />
        </mxCell>
        <mxCell id="gh1g828XKREOO8P81Urr-44" value="Конец" style="strokeWidth=2;html=1;shape=mxgraph.flowchart.start_1;whiteSpace=wrap;" vertex="1" parent="WIyWlLk6GJQsqaUBKTNV-1">
          <mxGeometry x="720" y="365" width="100" height="60" as="geometry" />
        </mxCell>
      </root>
    </mxGraphModel>
  </diagram>
</mxfile>
